<?xml version="1.0" standalone="no"?>
<!DOCTYPE svg PUBLIC "-//W3C//DTD SVG 1.1//EN" "http://www.w3.org/Graphics/SVG/1.1/DTD/svg11.dtd">
<svg version="1.1" xmlns="http://www.w3.org/2000/svg" viewBox="0 0 351.92689912980927 134.18577850583614" width="351.92689912980927" height="134.18577850583614"><!-- svg-source:excalidraw --><metadata></metadata><defs><style class="style-fonts">
      </style></defs><rect x="0" y="0" width="351.92689912980927" height="134.18577850583614" fill="#ffffff"></rect><g stroke-linecap="round" transform="translate(10 10) rotate(0 19.253539998102667 27.5)"><path d="M0 0 C14.31 0, 28.63 0, 38.51 0 M0 0 C14.09 0, 28.18 0, 38.51 0 M38.51 0 C38.51 11.29, 38.51 22.58, 38.51 55 M38.51 0 C38.51 13.69, 38.51 27.38, 38.51 55 M38.51 55 C24.94 55, 11.37 55, 0 55 M38.51 55 C23.34 55, 8.17 55, 0 55 M0 55 C0 40.42, 0 25.84, 0 0 M0 55 C0 35.33, 0 15.66, 0 0" stroke="#1e1e1e" stroke-width="2" fill="none"></path></g><g transform="translate(19.83687301354462 15) rotate(0 9.416666984558105 22.5)"><text x="9.416666984558105" y="31.5" font-family="Comic Shanns, Segoe UI Emoji" font-size="36px" fill="#1e1e1e" text-anchor="middle" style="white-space: pre;" direction="ltr" dominant-baseline="alphabetic">α</text></g><g stroke-linecap="round" transform="translate(108.81413971652955 10) rotate(0 19.253539998102667 27.5)"><path d="M0 0 C13.73 0, 27.47 0, 38.51 0 M0 0 C10.86 0, 21.71 0, 38.51 0 M38.51 0 C38.51 13.42, 38.51 26.84, 38.51 55 M38.51 0 C38.51 19.18, 38.51 38.36, 38.51 55 M38.51 55 C29.92 55, 21.33 55, 0 55 M38.51 55 C26.26 55, 14.01 55, 0 55 M0 55 C0 35.66, 0 16.31, 0 0 M0 55 C0 34.82, 0 14.64, 0 0" stroke="#1e1e1e" stroke-width="2" fill="none"></path></g><g transform="translate(118.92184669919038 15) rotate(0 9.145833015441895 22.5)"><text x="9.145833015441895" y="31.5" font-family="Comic Shanns, Segoe UI Emoji" font-size="36px" fill="#1e1e1e" text-anchor="middle" style="white-space: pre;" direction="ltr" dominant-baseline="alphabetic">β</text></g><g stroke-linecap="round" transform="translate(304.6619830044492 10) rotate(0 18.63245806268003 27.5)"><path d="M0 0 C12.03 0, 24.06 0, 37.26 0 M0 0 C13.21 0, 26.42 0, 37.26 0 M37.26 0 C37.26 20.88, 37.26 41.77, 37.26 55 M37.26 0 C37.26 11.88, 37.26 23.76, 37.26 55 M37.26 55 C22.68 55, 8.09 55, 0 55 M37.26 55 C28.09 55, 18.92 55, 0 55 M0 55 C0 42.6, 0 30.2, 0 0 M0 55 C0 33.59, 0 12.19, 0 0" stroke="#1e1e1e" stroke-width="2" fill="none"></path></g><g transform="translate(314.81527408257114 15) rotate(0 8.479166984558105 22.5)"><text x="8.479166984558105" y="31.5" font-family="Comic Shanns, Segoe UI Emoji" font-size="36px" fill="#1e1e1e" text-anchor="middle" style="white-space: pre;" direction="ltr" dominant-baseline="alphabetic">δ</text></g><g stroke-linecap="round" transform="translate(203.79959429637836 69.18577850583614) rotate(0 17.742239990110306 27.5)"><path d="M0 0 C11.25 0, 22.49 0, 35.48 0 M0 0 C7.75 0, 15.5 0, 35.48 0 M35.48 0 C35.48 17.94, 35.48 35.88, 35.48 55 M35.48 0 C35.48 14.85, 35.48 29.7, 35.48 55 M35.48 55 C24.46 55, 13.45 55, 0 55 M35.48 55 C22.7 55, 9.93 55, 0 55 M0 55 C0 41.25, 0 27.5, 0 0 M0 55 C0 41.4, 0 27.81, 0 0" stroke="#1e1e1e" stroke-width="2" fill="none"></path></g><g transform="translate(213.60433428648867 74.18577850583614) rotate(0 7.9375 22.5)"><text x="7.9375" y="31.5" font-family="Comic Shanns, Segoe UI Emoji" font-size="36px" fill="#1e1e1e" text-anchor="middle" style="white-space: pre;" direction="ltr" dominant-baseline="alphabetic">γ</text></g><g stroke-linecap="round"><g transform="translate(54.45225568264732 37.54164183385467) rotate(0 23.417455567710192 -2.842170943040401e-14)"><path d="M0 0 C17.45 0, 34.9 0, 46.83 0 M0 0 C9.74 0, 19.48 0, 46.83 0" stroke="#1e1e1e" stroke-width="2" fill="none"></path></g><g transform="translate(54.45225568264732 37.54164183385467) rotate(0 23.417455567710192 -2.842170943040401e-14)"><path d="M24.83 8.01 C33.03 5.02, 41.23 2.04, 46.83 0 M24.83 8.01 C29.41 6.34, 33.98 4.68, 46.83 0" stroke="#1e1e1e" stroke-width="2" fill="none"></path></g><g transform="translate(54.45225568264732 37.54164183385467) rotate(0 23.417455567710192 -2.842170943040401e-14)"><path d="M24.83 -8.01 C33.03 -5.02, 41.23 -2.04, 46.83 0 M24.83 -8.01 C29.41 -6.34, 33.98 -4.68, 46.83 0" stroke="#1e1e1e" stroke-width="2" fill="none"></path></g></g><mask></mask><g stroke-linecap="round"><g transform="translate(153.3655022201974 34.77335631487637) rotate(0 72.32347736950265 0.465836130753047)"><path d="M0 0 C48.01 0.31, 96.03 0.62, 144.65 0.93 M0 0 C55.62 0.36, 111.24 0.72, 144.65 0.93" stroke="#1e1e1e" stroke-width="2" fill="none"></path></g><g transform="translate(153.3655022201974 34.77335631487637) rotate(0 72.32347736950265 0.465836130753047)"><path d="M121.1 9.33 C128.92 6.54, 136.73 3.75, 144.65 0.93 M121.1 9.33 C130.15 6.1, 139.21 2.87, 144.65 0.93" stroke="#1e1e1e" stroke-width="2" fill="none"></path></g><g transform="translate(153.3655022201974 34.77335631487637) rotate(0 72.32347736950265 0.465836130753047)"><path d="M121.21 -7.77 C128.99 -4.88, 136.77 -1.99, 144.65 0.93 M121.21 -7.77 C130.22 -4.42, 139.23 -1.08, 144.65 0.93" stroke="#1e1e1e" stroke-width="2" fill="none"></path></g></g><mask></mask><g stroke-linecap="round"><g transform="translate(245.49489363082557 90.2401684724419) rotate(0 26.47813500969852 -18.611602655638762)"><path d="M0 0 C19.48 -13.69, 38.95 -27.38, 52.96 -37.22 M0 0 C14.02 -9.85, 28.04 -19.71, 52.96 -37.22" stroke="#1e1e1e" stroke-width="2" fill="none"></path></g><g transform="translate(245.49489363082557 90.2401684724419) rotate(0 26.47813500969852 -18.611602655638762)"><path d="M38.65 -16.72 C43.91 -24.26, 49.17 -31.8, 52.96 -37.22 M38.65 -16.72 C42.44 -22.15, 46.23 -27.58, 52.96 -37.22" stroke="#1e1e1e" stroke-width="2" fill="none"></path></g><g transform="translate(245.49489363082557 90.2401684724419) rotate(0 26.47813500969852 -18.611602655638762)"><path d="M28.82 -30.71 C37.7 -33.1, 46.57 -35.5, 52.96 -37.22 M28.82 -30.71 C35.21 -32.43, 41.6 -34.16, 52.96 -37.22" stroke="#1e1e1e" stroke-width="2" fill="none"></path></g></g><mask></mask><g stroke-linecap="round"><g transform="translate(151.17193529392205 51.103543846813466) rotate(0 23.208419824114856 19.683392559220778)"><path d="M0 0 C9.53 8.08, 19.06 16.16, 46.42 39.37 M0 0 C11.55 9.8, 23.1 19.6, 46.42 39.37" stroke="#1e1e1e" stroke-width="2" fill="none"></path></g><g transform="translate(151.17193529392205 51.103543846813466) rotate(0 23.208419824114856 19.683392559220778)"><path d="M22.97 30.69 C27.78 32.47, 32.6 34.25, 46.42 39.37 M22.97 30.69 C28.81 32.85, 34.64 35.01, 46.42 39.37" stroke="#1e1e1e" stroke-width="2" fill="none"></path></g><g transform="translate(151.17193529392205 51.103543846813466) rotate(0 23.208419824114856 19.683392559220778)"><path d="M34.03 17.65 C36.57 22.11, 39.12 26.57, 46.42 39.37 M34.03 17.65 C37.11 23.06, 40.2 28.46, 46.42 39.37" stroke="#1e1e1e" stroke-width="2" fill="none"></path></g></g><mask></mask></svg>